<svg xmlns="http://www.w3.org/2000/svg" viewBox="0 0 32 32">
  <defs>
    <linearGradient id="logoGradient" x1="0%" y1="0%" x2="100%" y2="100%">
      <stop offset="0%" style="stop-color:#FF7F00"/>
      <stop offset="100%" style="stop-color:#FFA07A"/>
    </linearGradient>
  </defs>
  
  <!-- Background circle -->
  <circle cx="16" cy="16" r="16" fill="#1A365D"/>
  
  <!-- Stylized lotus -->
  <g transform="translate(4, 4)">
    <path d="M12 4C8 4 4 8 4 12C4 16 8 20 12 20C16 20 20 16 20 12C20 8 16 4 12 4Z" 
          fill="url(#logoGradient)" 
          opacity="0.9"/>
    
    <!-- Lotus petals -->
    <path d="M12 6C10 8 9 10 9 12C9 14 10 16 12 18C14 16 15 14 15 12C15 10 14 8 12 6Z" 
          fill="#FFD700"
          opacity="0.95"/>
    <path d="M6 12C8 10 10 9 12 9C14 9 16 10 18 12C16 14 14 15 12 15C10 15 8 14 6 12Z" 
          fill="#FFD700"
          opacity="0.95"/>
  </g>
</svg>